<svg width="76" height="76" viewBox="0 0 76 76" fill="none" xmlns="http://www.w3.org/2000/svg">
<g clip-path="url(#clip0_68_1699)">
<g filter="url(#filter0_dd_68_1699)">
<path d="M3.33674 22.6073C5.78605 10.7988 13.3223 4.22188 25.0776 2.23505C33.7675 0.766628 42.4606 0.748032 51.1359 2.27628C63.2396 4.40832 70.5159 11.3688 72.8339 23.3558C74.6247 32.6197 74.6529 41.9824 72.8058 51.2376C70.3278 62.9642 62.5972 70.2028 50.8853 72.1824C42.1954 73.6506 33.5023 73.6692 24.827 72.1411C12.7232 70.0089 5.41461 62.701 3.09678 50.7142C1.21456 41.3891 1.39567 31.9672 3.33674 22.6071V22.6073Z" fill="black"/>
</g>
<path d="M3.33674 22.6073C5.78605 10.7988 13.3223 4.22188 25.0776 2.23505C33.7675 0.766628 42.4606 0.748032 51.1359 2.27628C63.2396 4.40832 70.5159 11.3688 72.8339 23.3558C74.6247 32.6197 74.6529 41.9824 72.8058 51.2376C70.3278 62.9642 62.5972 70.2028 50.8853 72.1824C42.1954 73.6506 33.5023 73.6692 24.827 72.1411C12.7232 70.0089 5.41461 62.701 3.09678 50.7142C1.21456 41.3891 1.39567 31.9672 3.33674 22.6071V22.6073Z" fill="#A6CFD5"/>
<path fill-rule="evenodd" clip-rule="evenodd" d="M49.8586 25.0803C45.3678 20.5404 37.1915 16.4936 37.1915 16.4936V47.5412C37.1915 49.0299 36.7327 50.4952 35.8215 51.6727C34.9341 52.8192 33.5116 53.8615 31.2727 53.8615C28.6491 53.8615 27.247 52.3092 27.247 49.846C27.247 47.3826 29.7118 45.691 32.2856 45.1836C32.8322 45.0758 33.634 45.0252 33.634 45.0252V42.2326C33.4725 42.2239 33.3107 42.2194 33.1489 42.219C28.6824 42.219 24.2553 45.7869 24.2553 49.9807C24.2553 54.1744 26.9574 56.7183 31.4242 56.7183C35.8545 56.7183 39.9802 53.5296 39.9802 46.5333C39.9802 39.5375 39.9944 21.0244 39.9944 21.0244C41.8333 22.0544 44.7737 23.8577 47.3574 26.1426C51.4863 29.7938 45.9774 35.9126 45.9774 35.9126L48.1334 37.7992C48.1334 37.7992 54.6553 29.9296 49.8586 25.0803Z" fill="white"/>
</g>
<defs>
<filter id="filter0_dd_68_1699" x="-9.22131" y="-5.8681" width="94.4054" height="94.1535" filterUnits="userSpaceOnUse" color-interpolation-filters="sRGB">
<feFlood flood-opacity="0" result="BackgroundImageFix"/>
<feColorMatrix in="SourceAlpha" type="matrix" values="0 0 0 0 0 0 0 0 0 0 0 0 0 0 0 0 0 0 127 0" result="hardAlpha"/>
<feOffset dy="5"/>
<feGaussianBlur stdDeviation="4"/>
<feColorMatrix type="matrix" values="0 0 0 0 0 0 0 0 0 0 0 0 0 0 0 0 0 0 0.078125 0"/>
<feBlend mode="normal" in2="BackgroundImageFix" result="effect1_dropShadow_68_1699"/>
<feColorMatrix in="SourceAlpha" type="matrix" values="0 0 0 0 0 0 0 0 0 0 0 0 0 0 0 0 0 0 127 0" result="hardAlpha"/>
<feOffset dy="4"/>
<feGaussianBlur stdDeviation="5.5"/>
<feColorMatrix type="matrix" values="0 0 0 0 0 0 0 0 0 0 0 0 0 0 0 0 0 0 0.210824 0"/>
<feBlend mode="normal" in2="effect1_dropShadow_68_1699" result="effect2_dropShadow_68_1699"/>
<feBlend mode="normal" in="SourceGraphic" in2="effect2_dropShadow_68_1699" result="shape"/>
</filter>
<clipPath id="clip0_68_1699">
<rect width="76" height="75.6766" fill="white"/>
</clipPath>
</defs>
</svg>
