<svg width="68" height="68" viewBox="0 0 68 68" fill="none" xmlns="http://www.w3.org/2000/svg">
<mask id="path-1-inside-1_1_5817" fill="white">
<path d="M54.1875 15.9375H52.0625V13.8125C52.0625 10.3063 49.1937 7.4375 45.6875 7.4375C44.5187 7.4375 43.5625 8.39375 43.5625 9.5625C43.5625 10.7313 44.5187 11.6875 45.6875 11.6875C46.8563 11.6875 47.8125 12.6438 47.8125 13.8125V45.6875C47.8125 46.8563 46.8563 47.8125 45.6875 47.8125H13.8125C12.6438 47.8125 11.6875 46.8563 11.6875 45.6875V13.8125C11.6875 12.6438 12.6438 11.6875 13.8125 11.6875H36.125C37.2938 11.6875 38.25 10.7313 38.25 9.5625C38.25 8.39375 37.2938 7.4375 36.125 7.4375H13.8125C10.3063 7.4375 7.4375 10.3063 7.4375 13.8125V45.6875C7.4375 49.1937 10.3063 52.0625 13.8125 52.0625H15.9375V54.1875C15.9375 57.6937 18.8062 60.5625 22.3125 60.5625H54.1875C57.6937 60.5625 60.5625 57.6937 60.5625 54.1875V22.3125C60.5625 18.8062 57.6937 15.9375 54.1875 15.9375ZM56.3125 54.1875C56.3125 55.3563 55.3563 56.3125 54.1875 56.3125H22.3125C21.1438 56.3125 20.1875 55.3563 20.1875 54.1875V52.0625H45.6875C49.1937 52.0625 52.0625 49.1937 52.0625 45.6875V20.1875H54.1875C55.3563 20.1875 56.3125 21.1438 56.3125 22.3125V54.1875Z"/>
</mask>
<path d="M52.0625 15.9375H47.0625V20.9375H52.0625V15.9375ZM15.9375 52.0625H20.9375V47.0625H15.9375V52.0625ZM20.1875 52.0625V47.0625H15.1875V52.0625H20.1875ZM52.0625 20.1875V15.1875H47.0625V20.1875H52.0625ZM54.1875 10.9375H52.0625V20.9375H54.1875V10.9375ZM57.0625 15.9375V13.8125H47.0625V15.9375H57.0625ZM57.0625 13.8125C57.0625 7.54483 51.9552 2.4375 45.6875 2.4375V12.4375C46.4323 12.4375 47.0625 13.0677 47.0625 13.8125H57.0625ZM45.6875 2.4375C41.7573 2.4375 38.5625 5.63233 38.5625 9.5625H48.5625C48.5625 11.1552 47.2802 12.4375 45.6875 12.4375V2.4375ZM38.5625 9.5625C38.5625 13.4927 41.7573 16.6875 45.6875 16.6875V6.6875C47.2802 6.6875 48.5625 7.96983 48.5625 9.5625H38.5625ZM45.6875 16.6875C44.0948 16.6875 42.8125 15.4052 42.8125 13.8125H52.8125C52.8125 9.88233 49.6177 6.6875 45.6875 6.6875V16.6875ZM42.8125 13.8125V45.6875H52.8125V13.8125H42.8125ZM42.8125 45.6875C42.8125 44.0948 44.0948 42.8125 45.6875 42.8125V52.8125C49.6177 52.8125 52.8125 49.6177 52.8125 45.6875H42.8125ZM45.6875 42.8125H13.8125V52.8125H45.6875V42.8125ZM13.8125 42.8125C15.4052 42.8125 16.6875 44.0948 16.6875 45.6875H6.6875C6.6875 49.6177 9.88233 52.8125 13.8125 52.8125V42.8125ZM16.6875 45.6875V13.8125H6.6875V45.6875H16.6875ZM16.6875 13.8125C16.6875 15.4052 15.4052 16.6875 13.8125 16.6875V6.6875C9.88233 6.6875 6.6875 9.88233 6.6875 13.8125H16.6875ZM13.8125 16.6875H36.125V6.6875H13.8125V16.6875ZM36.125 16.6875C40.0552 16.6875 43.25 13.4927 43.25 9.5625H33.25C33.25 7.96983 34.5323 6.6875 36.125 6.6875V16.6875ZM43.25 9.5625C43.25 5.63233 40.0552 2.4375 36.125 2.4375V12.4375C34.5323 12.4375 33.25 11.1552 33.25 9.5625H43.25ZM36.125 2.4375H13.8125V12.4375H36.125V2.4375ZM13.8125 2.4375C7.54483 2.4375 2.4375 7.54483 2.4375 13.8125H12.4375C12.4375 13.0677 13.0677 12.4375 13.8125 12.4375V2.4375ZM2.4375 13.8125V45.6875H12.4375V13.8125H2.4375ZM2.4375 45.6875C2.4375 51.9552 7.54483 57.0625 13.8125 57.0625V47.0625C13.0677 47.0625 12.4375 46.4323 12.4375 45.6875H2.4375ZM13.8125 57.0625H15.9375V47.0625H13.8125V57.0625ZM10.9375 52.0625V54.1875H20.9375V52.0625H10.9375ZM10.9375 54.1875C10.9375 60.4552 16.0448 65.5625 22.3125 65.5625V55.5625C21.5677 55.5625 20.9375 54.9323 20.9375 54.1875H10.9375ZM22.3125 65.5625H54.1875V55.5625H22.3125V65.5625ZM54.1875 65.5625C60.4552 65.5625 65.5625 60.4552 65.5625 54.1875H55.5625C55.5625 54.9323 54.9323 55.5625 54.1875 55.5625V65.5625ZM65.5625 54.1875V22.3125H55.5625V54.1875H65.5625ZM65.5625 22.3125C65.5625 16.0448 60.4552 10.9375 54.1875 10.9375V20.9375C54.9323 20.9375 55.5625 21.5677 55.5625 22.3125H65.5625ZM51.3125 54.1875C51.3125 52.5948 52.5948 51.3125 54.1875 51.3125V61.3125C58.1177 61.3125 61.3125 58.1177 61.3125 54.1875H51.3125ZM54.1875 51.3125H22.3125V61.3125H54.1875V51.3125ZM22.3125 51.3125C23.9052 51.3125 25.1875 52.5948 25.1875 54.1875H15.1875C15.1875 58.1177 18.3823 61.3125 22.3125 61.3125V51.3125ZM25.1875 54.1875V52.0625H15.1875V54.1875H25.1875ZM20.1875 57.0625H45.6875V47.0625H20.1875V57.0625ZM45.6875 57.0625C51.9552 57.0625 57.0625 51.9552 57.0625 45.6875H47.0625C47.0625 46.4323 46.4323 47.0625 45.6875 47.0625V57.0625ZM57.0625 45.6875V20.1875H47.0625V45.6875H57.0625ZM52.0625 25.1875H54.1875V15.1875H52.0625V25.1875ZM54.1875 25.1875C52.5948 25.1875 51.3125 23.9052 51.3125 22.3125H61.3125C61.3125 18.3823 58.1177 15.1875 54.1875 15.1875V25.1875ZM51.3125 22.3125V54.1875H61.3125V22.3125H51.3125Z" fill="#94A3B8" mask="url(#path-1-inside-1_1_5817)"/>
</svg>
