<svg width="16" height="16" viewBox="0 0 16 16" fill="none" xmlns="http://www.w3.org/2000/svg">
<path d="M14.3562 0H1.64375C0.8 0 0.125 0.675 0.125 1.51875V14.2875C0.125 15.075 0.8 15.75 1.64375 15.75H14.4125C15.2562 15.75 15.9313 15.075 15.9313 14.2312V1.51875C15.875 0.675 15.2 0 14.3562 0ZM1.64375 1.125H14.4125C14.5813 1.125 14.75 1.29375 14.75 1.51875V4.8375L13.5687 3.65625C13.0062 3.09375 12.05 3.09375 11.4313 3.65625L8.5625 6.525L7.38125 5.34375C6.81875 4.78125 5.8625 4.78125 5.24375 5.34375L1.25 9.3375V1.51875C1.25 1.29375 1.41875 1.125 1.64375 1.125ZM14.3562 14.625H1.64375C1.41875 14.625 1.25 14.4562 1.25 14.2312V10.9125L6.03125 6.13125C6.2 5.9625 6.425 5.9625 6.5375 6.13125L11.4875 11.0813C11.6 11.1938 11.7688 11.25 11.8812 11.25C11.9937 11.25 12.1625 11.1938 12.275 11.0813C12.5 10.8563 12.5 10.5187 12.275 10.2937L9.35 7.3125L12.2188 4.44375C12.3875 4.275 12.6125 4.275 12.725 4.44375L14.5813 6.3C14.6375 6.35625 14.6375 6.35625 14.6937 6.35625V14.2312C14.75 14.4562 14.5812 14.625 14.3562 14.625Z" fill="#94A3B8"/>
</svg>
