<svg width="17" height="18" viewBox="0 0 17 18" fill="none" xmlns="http://www.w3.org/2000/svg">
<path d="M15.9416 16.001L14.792 14.0982C14.4979 13.6091 14.5095 13.0034 14.8233 12.5161C15.5931 11.3253 16 9.93692 16 8.50099C16 6.50696 15.2173 4.62602 13.7962 3.20467C12.375 1.78328 10.4942 1.00049 8.50033 1.00049C8.19148 1.00049 7.87756 1.01971 7.56718 1.05763C4.37292 1.44751 1.72819 3.91585 1.13571 7.06021C0.716168 9.28618 1.29777 11.5545 2.73138 13.2835C4.16328 15.0105 6.24873 16.001 8.45301 16.001H15.9416ZM16.008 17.001H8.45301C3.29802 17.001 -0.860981 12.255 0.153012 6.875C0.827023 3.29799 3.83302 0.505997 7.44603 0.0650024C7.80116 0.0216064 8.15335 0.000488281 8.50033 0.000488281C13.1754 0.000488281 17 3.82596 17 8.50099C17 10.143 16.541 11.701 15.663 13.059C15.56 13.219 15.551 13.42 15.649 13.583L16.858 15.584C17.047 15.867 17.047 16.245 16.858 16.528C16.717 16.812 16.386 17.001 16.008 17.001Z" fill="#111118"/>
<path d="M5.453 6.68799H12.047" stroke="#111118" stroke-miterlimit="10" stroke-linecap="round"/>
<path d="M5.453 10.313H9.708" stroke="#111118" stroke-miterlimit="10" stroke-linecap="round"/>
</svg>
