<svg width="24" height="24" viewBox="0 0 24 24" fill="none" xmlns="http://www.w3.org/2000/svg">
<path fill-rule="evenodd" clip-rule="evenodd" d="M21.4549 5.41575C21.6471 5.70687 21.615 6.10248 21.3588 6.35876L12.1664 15.5511C12.0721 15.6454 11.9545 15.7128 11.8256 15.7465L7.99717 16.7465C7.8723 16.7791 7.74359 16.7784 7.62266 16.7476C7.49409 16.7149 7.37432 16.6482 7.2773 16.5511C7.08903 16.3629 7.01469 16.0889 7.08198 15.8313L8.08198 12.0028C8.11145 11.89 8.16674 11.7786 8.24323 11.6912L17.4697 2.46967C17.5504 2.38891 17.6477 2.32846 17.7536 2.29163C17.8321 2.26432 17.9153 2.25 18 2.25C18.1989 2.25 18.3897 2.32902 18.5303 2.46967L21.3588 5.2981C21.3954 5.33471 21.4274 5.37416 21.4549 5.41575ZM19.7678 5.82843L18 4.06066L9.48185 12.5788L8.85686 14.9716L11.2496 14.3466L19.7678 5.82843Z" fill="white"/>
<path d="M19.6416 17.1603C19.915 14.8227 20.002 12.4688 19.9025 10.1208C19.8978 10.0084 19.9401 9.89897 20.0196 9.81941L21.0029 8.83608C21.1238 8.71518 21.3304 8.79193 21.3417 8.96253C21.5267 11.7522 21.4565 14.5545 21.1314 17.3346C20.8948 19.3571 19.2705 20.9421 17.2585 21.167C13.7919 21.5544 10.2085 21.5544 6.74195 21.167C4.72989 20.9421 3.10556 19.3571 2.86901 17.3346C2.45447 13.7903 2.45447 10.2097 2.86901 6.66542C3.10556 4.64289 4.72989 3.05788 6.74195 2.833C9.3717 2.53909 12.0687 2.46814 14.7308 2.62015C14.9024 2.62995 14.9806 2.83756 14.8591 2.95908L13.8666 3.95164C13.7879 4.03033 13.68 4.0726 13.5687 4.06884C11.3423 3.99375 9.10073 4.07871 6.90856 4.32372C5.57845 4.47238 4.51296 5.52199 4.35885 6.83967C3.95785 10.2682 3.95785 13.7318 4.35885 17.1603C4.51296 18.478 5.57845 19.5276 6.90856 19.6763C10.2644 20.0513 13.736 20.0513 17.0918 19.6763C18.422 19.5276 19.4874 18.478 19.6416 17.1603Z" fill="white"/>
</svg>
