<svg width="30" height="30" viewBox="0 0 30 30" fill="none" xmlns="http://www.w3.org/2000/svg">
<path d="M15 29.5C23.0081 29.5 29.5 23.0081 29.5 15C29.5 6.99187 23.0081 0.5 15 0.5C6.99187 0.5 0.5 6.99187 0.5 15C0.5 23.0081 6.99187 29.5 15 29.5Z" stroke="#111118" stroke-miterlimit="10"/>
<path d="M9.3451 18.367C9.27547 18.479 9.2313 18.605 9.21575 18.736C9.2002 18.867 9.21363 18.9998 9.25509 19.125C9.54642 20.0411 10.0523 20.8743 10.7307 21.5554C11.4091 22.2365 12.2404 22.7457 13.1553 23.0406C14.0703 23.3355 15.0424 23.4077 15.9908 23.251C16.9393 23.0944 17.8366 22.7134 18.6081 22.14C19.6319 21.3966 20.3828 20.3372 20.7451 19.125C20.7865 19.0001 20.8006 18.8679 20.7864 18.7371C20.7723 18.6063 20.7302 18.4801 20.6631 18.367C20.6083 18.261 20.5254 18.1721 20.4234 18.11C20.3215 18.0479 20.2044 18.015 20.0851 18.015H9.92309C9.80352 18.014 9.68607 18.0464 9.58395 18.1086C9.48182 18.1708 9.39911 18.2603 9.3451 18.367Z" fill="#111118"/>
<path d="M10.599 10.74C10.4137 10.42 10.148 10.154 9.82825 9.96838C9.50846 9.78279 9.1457 9.68407 8.77596 9.68201C8.40472 9.68255 8.04015 9.78085 7.71896 9.96701C7.39898 10.1511 7.13467 10.4181 6.95396 10.74C6.76717 11.0609 6.66883 11.4257 6.66895 11.797C6.66799 12.1662 6.76644 12.5289 6.95396 12.847C7.13868 13.1658 7.40206 13.432 7.71896 13.62C8.04015 13.8062 8.40472 13.9045 8.77596 13.905C9.33407 13.9018 9.86841 13.6787 10.2631 13.2841C10.6577 12.8894 10.8808 12.3551 10.884 11.797C10.8834 11.4258 10.7851 11.0612 10.599 10.74Z" fill="#111118"/>
<path d="M21.2248 9.68999C20.7324 9.68599 20.2539 9.85311 19.8711 10.1628C19.4883 10.4724 19.2249 10.9054 19.1259 11.3878C19.0269 11.8701 19.0985 12.3718 19.3285 12.8072C19.5584 13.2426 19.9324 13.5847 20.3866 13.7749C20.8407 13.9652 21.3468 13.9918 21.8184 13.8502C22.2901 13.7087 22.6979 13.4077 22.9722 12.9988C23.2465 12.5899 23.3703 12.0984 23.3225 11.6084C23.2746 11.1183 23.058 10.6601 22.7098 10.312C22.5197 10.1099 22.2893 9.95014 22.0335 9.84298C21.7776 9.73582 21.5021 9.68369 21.2248 9.68999Z" fill="#111118"/>
</svg>
