<svg width="7" height="8" viewBox="0 0 7 8" fill="none" xmlns="http://www.w3.org/2000/svg">
<path d="M6.59497 4.34201L6.58796 4.29901L6.57997 4.25601L6.57196 4.21701C6.57196 4.20001 6.56496 4.18201 6.56096 4.16401C6.55696 4.14601 6.54797 4.10501 6.54097 4.07601C6.53397 4.04701 6.52696 4.01601 6.51896 3.98501L6.50696 3.94001C6.49996 3.91301 6.49297 3.88601 6.48497 3.85901V3.84201L6.47197 3.79701C6.44197 3.69301 6.40863 3.58901 6.37197 3.48501L6.33996 3.39701L6.29496 3.30201L6.27497 3.25201L6.24196 3.17101L6.22197 3.12401L6.20297 3.08001L6.18296 3.03601L6.17096 3.00201L6.16097 2.97901C6.14297 2.93901 6.12396 2.89901 6.10396 2.85901L6.08197 2.81501L6.05996 2.77101L6.04097 2.73301C6.01763 2.68768 5.99397 2.64235 5.96997 2.59701L5.94597 2.55401L5.92196 2.51101L5.89496 2.47201L5.86997 2.42901C5.79597 2.30168 5.7173 2.17635 5.63397 2.05301L5.58297 1.97901C5.43722 1.76937 5.27858 1.56898 5.10797 1.37901L5.08097 1.35001L5.04696 1.31301L5.01297 1.27701L4.97997 1.24201L4.90996 1.17001L4.83896 1.10001L4.81497 1.07701L4.78597 1.05001L4.76497 1.03001L4.73597 1.00201L4.69497 0.967014L4.65796 0.934014L4.62197 0.902014L4.59497 0.874014L4.55297 0.839014L4.51497 0.808014L4.48197 0.781014L4.43897 0.747014L4.40496 0.721014C4.3383 0.671014 4.27163 0.623014 4.20497 0.577014L4.16597 0.551014C4.12463 0.523681 4.0833 0.497014 4.04197 0.471014L4.00296 0.447014C3.89696 0.380347 3.78863 0.322014 3.67797 0.272014L3.63597 0.252014C3.55597 0.214681 3.47496 0.181348 3.39296 0.152014L3.35196 0.137014L3.31797 0.125014L3.24997 0.102014L3.21496 0.0910142L3.13397 0.0680142L3.09497 0.0570142L3.06296 0.0490142L3.03897 0.0420142L3.00596 0.0340142L2.97796 0.0280142L2.87796 0.00901416L2.84297 0.00201416H2.83497C2.79697 0.00201416 2.73497 0.0270142 2.76497 0.0910142C2.96417 0.59033 3.01683 1.13611 2.91675 1.6643C2.81668 2.19249 2.56802 2.68118 2.19996 3.07301C2.1513 3.12501 2.10463 3.17868 2.05996 3.23401C1.94064 3.38285 1.83771 3.54411 1.75296 3.71501L1.73996 3.74201C1.71263 3.79868 1.68763 3.85601 1.66497 3.91401L1.65297 3.94401L1.64096 3.97701L1.62896 4.01101L1.61696 4.04501L1.60597 4.07901L1.59697 4.10801L1.58596 4.14701L1.57596 4.18101L1.56697 4.21601L1.55597 4.26001L1.54997 4.28601C1.54997 4.30501 1.54197 4.32301 1.53797 4.34201L1.53296 4.36801L1.52697 4.40001C1.51363 4.47535 1.50397 4.55168 1.49797 4.62901C1.49797 4.63801 1.49797 4.64601 1.49797 4.65501C1.49797 4.66401 1.49797 4.69601 1.49797 4.71701C1.49797 4.73801 1.49797 4.73901 1.49797 4.75001C1.49797 4.78801 1.49797 4.82601 1.49797 4.86401C1.49797 4.88501 1.49797 4.90701 1.49797 4.92901C1.49941 4.9508 1.49298 4.97238 1.47983 4.98982C1.46669 5.00726 1.44772 5.01939 1.42637 5.024C1.40503 5.02861 1.38273 5.02538 1.36357 5.01492C1.3444 5.00446 1.32964 4.98746 1.32196 4.96701C1.21778 4.70037 1.16551 4.41628 1.16797 4.13001C1.16852 4.11255 1.16288 4.09544 1.15204 4.08174C1.14119 4.06803 1.12584 4.05861 1.10871 4.05513C1.09158 4.05166 1.07377 4.05436 1.05845 4.06276C1.04312 4.07116 1.03126 4.08471 1.02497 4.10101C0.844874 4.59161 0.819743 5.12567 0.952969 5.63101C1.19197 6.64101 2.23697 7.66701 4.39797 7.36601L4.46797 7.35601C4.5453 7.34401 4.6213 7.32868 4.69597 7.31001C4.73797 7.29935 4.7793 7.28768 4.81997 7.27501L4.85196 7.26501C5.24985 7.13399 5.61003 6.90841 5.90159 6.60761C6.19315 6.30682 6.4074 5.93979 6.52597 5.53801L6.53496 5.50801L6.53997 5.48901V5.47401L6.54796 5.44401L6.55597 5.41301L6.56296 5.38201C6.63678 5.06644 6.65137 4.73991 6.60597 4.41901V4.38601L6.59497 4.34201Z" fill="#FFA812"/>
<path d="M5.69202 5.61501C5.67993 5.82667 5.62605 6.03383 5.53349 6.22456C5.44094 6.41529 5.31154 6.58581 5.15275 6.72628C4.99397 6.86675 4.80894 6.9744 4.60835 7.04301C4.40776 7.11161 4.19556 7.13982 3.98401 7.12601C3.77501 7.11024 3.57121 7.05326 3.38432 6.95838C3.19744 6.8635 3.03117 6.7326 2.89509 6.57319C2.75902 6.41378 2.65582 6.22902 2.59144 6.02956C2.52707 5.83011 2.5028 5.61988 2.52002 5.411C2.53817 5.1952 2.60086 4.9855 2.70413 4.79514C2.8074 4.60478 2.949 4.4379 3.12001 4.30502C3.39561 4.0819 3.61642 3.79859 3.7655 3.47686C3.91458 3.15513 3.98796 2.80351 3.98001 2.44901C4.53913 2.75676 4.99786 3.21893 5.30144 3.78033C5.60501 4.34173 5.7406 4.97864 5.69202 5.61501Z" fill="#A6CFD5" fill-opacity="0.17"/>
<path d="M6.26589 4.59102C6.29506 4.86346 6.27001 5.13898 6.19214 5.40168C6.11427 5.66437 5.98515 5.90905 5.81223 6.12159C5.6393 6.33412 5.42599 6.5103 5.18462 6.63996C4.94324 6.76962 4.67856 6.85019 4.40589 6.87702C4.13612 6.90087 3.8643 6.87114 3.60607 6.78953C3.34783 6.70792 3.10829 6.57605 2.90122 6.4015C2.69414 6.22696 2.52363 6.01319 2.39949 5.77249C2.27535 5.5318 2.20004 5.26893 2.17789 4.99902C2.1563 4.71954 2.19298 4.43863 2.28559 4.17406C2.37819 3.90949 2.52471 3.66703 2.71588 3.46202C3.03476 3.10864 3.27179 2.68929 3.41007 2.23383C3.54834 1.77838 3.58447 1.29803 3.51589 0.827018C3.5178 0.811326 3.52306 0.796226 3.53128 0.782726C3.53951 0.769225 3.55052 0.757636 3.56359 0.748737C3.57665 0.739837 3.59147 0.733831 3.60704 0.731121C3.62262 0.72841 3.63858 0.729058 3.65389 0.73302C5.08889 1.11002 6.11289 3.09702 6.26589 4.59102Z" fill="#A6CFD5" fill-opacity="0.15"/>
</svg>
