<svg width="23" height="25" viewBox="0 0 23 25" fill="none" xmlns="http://www.w3.org/2000/svg">
<path d="M3.11621 6.5C3.11621 7.68669 3.46809 8.84674 4.12738 9.83344C4.78667 10.8201 5.72377 11.5891 6.82013 12.0433C7.91649 12.4974 9.12286 12.6162 10.2867 12.3847C11.4506 12.1532 12.5198 11.5818 13.3589 10.7426C14.198 9.90353 14.7694 8.83442 15.0009 7.67053C15.2324 6.50665 15.1136 5.30024 14.6595 4.20389C14.2054 3.10753 13.4363 2.17046 12.4496 1.51117C11.463 0.851881 10.3029 0.5 9.11621 0.5C7.52491 0.5 5.99881 1.13214 4.8736 2.25735C3.74838 3.38257 3.11621 4.9087 3.11621 6.5Z" fill="#1DC194"/>
<path d="M9.11618 24.5C4.78118 24.5 0.116177 23.263 0.116177 20.546C0.0498938 18.0883 0.959471 15.7044 2.64602 13.9155C4.33258 12.1267 6.65887 11.0784 9.11618 11C10.2175 10.9989 11.3086 11.2112 12.3292 11.625C12.1264 11.7832 11.9334 11.9535 11.7512 12.135C10.826 13.0602 10.2287 14.2624 10.0501 15.5585C9.87147 16.8547 10.1214 18.1737 10.7619 19.3146C11.4023 20.4555 12.3981 21.3558 13.5976 21.8783C14.7971 22.4008 16.1346 22.517 17.4062 22.209C16.0712 23.624 12.8942 24.5 9.11618 24.5Z" fill="#1DC194"/>
<path d="M18.1163 18.5C18.2398 18.3354 18.3999 18.2019 18.584 18.1099C18.768 18.0179 18.971 17.97 19.1768 17.97C19.3825 17.97 19.5855 18.0179 19.7696 18.1099C19.9537 18.2019 20.1138 18.3354 20.2373 18.5L22.3583 20.621C22.5228 20.7445 22.6564 20.9047 22.7484 21.0887C22.8404 21.2728 22.8883 21.4757 22.8883 21.6815C22.8883 21.8873 22.8404 22.0902 22.7484 22.2743C22.6564 22.4584 22.5228 22.6185 22.3583 22.742C22.235 22.9069 22.075 23.0409 21.8909 23.1331C21.7068 23.2253 21.5037 23.2733 21.2978 23.2733C21.0919 23.2733 20.8888 23.2253 20.7047 23.1331C20.5206 23.0409 20.3606 22.9069 20.2373 22.742L18.1163 20.621C17.9513 20.4977 17.8175 20.3377 17.7252 20.1536C17.633 19.9695 17.585 19.7664 17.585 19.5605C17.585 19.3546 17.633 19.1515 17.7252 18.9674C17.8175 18.7833 17.9513 18.6233 18.1163 18.5Z" fill="#1DC194"/>
<path d="M13.8719 14.258C13.4525 14.6776 13.167 15.2122 13.0514 15.7941C12.9358 16.376 12.9954 16.9791 13.2225 17.5271C13.4496 18.0752 13.8341 18.5436 14.3274 18.8732C14.8207 19.2027 15.4007 19.3786 15.9939 19.3786C16.5872 19.3786 17.1671 19.2027 17.6604 18.8732C18.1537 18.5436 18.5383 18.0752 18.7654 17.5271C18.9925 16.9791 19.052 16.376 18.9364 15.7941C18.8208 15.2122 18.5353 14.6776 18.1159 14.258C17.8373 13.9792 17.5065 13.7581 17.1424 13.6072C16.7783 13.4563 16.388 13.3786 15.9939 13.3786C15.5998 13.3786 15.2095 13.4563 14.8454 13.6072C14.4813 13.7581 14.1505 13.9792 13.8719 14.258ZM12.8119 13.198C13.2249 12.7707 13.7185 12.4294 14.2641 12.1939C14.8097 11.9584 15.3965 11.8332 15.9907 11.8257C16.585 11.8182 17.1748 11.9285 17.7262 12.1502C18.2775 12.3718 18.7795 12.7005 19.2032 13.1172C19.6269 13.534 19.9638 14.0305 20.1945 14.5781C20.4253 15.1258 20.5453 15.7137 20.5476 16.308C20.5499 16.9022 20.4344 17.4911 20.2079 18.0405C19.9814 18.5899 19.6484 19.089 19.2279 19.509L19.1759 19.561C18.3287 20.3882 17.1896 20.8482 16.0055 20.8411C14.8214 20.8341 13.6878 20.3606 12.8505 19.5234C12.0131 18.6862 11.5395 17.5527 11.5323 16.3686C11.5251 15.1845 11.9848 14.0454 12.8119 13.198Z" fill="#1DC194"/>
</svg>
