<svg width="17" height="17" viewBox="0 0 17 17" fill="none" xmlns="http://www.w3.org/2000/svg">
<path d="M5.32098 2C2.93839 2 1 3.91641 1 6.272C1 8.66362 2.24292 10.911 4.69421 12.9516C6.24957 14.2464 7.82895 15.0597 8.50345 15.3779C9.11395 15.0071 10.7286 13.9751 12.3275 12.5182C14.0028 10.9915 16 8.66861 16 6.272C16 3.91641 14.0616 2 11.679 2C10.7705 2 9.86224 2.29465 9.12149 2.82967L9.1105 2.8376L9.09933 2.84523C8.92178 2.96626 8.71472 3.03024 8.50049 3.03024C8.28625 3.03024 8.07919 2.96626 7.90167 2.84523L7.89047 2.8376L7.87949 2.82967C7.12799 2.2869 6.24329 2 5.32098 2ZM5.32098 1C6.45398 1 7.55399 1.36101 8.465 2.019C8.47601 2.0265 8.48825 2.03024 8.50049 2.03024C8.51273 2.03024 8.52499 2.0265 8.53598 2.019C9.44699 1.36101 10.547 1 11.679 1C14.612 1 17 3.358 17 6.272C17 11.595 9.08698 16.202 8.74698 16.396C8.68698 16.438 8.61099 16.455 8.543 16.455C8.49197 16.455 8.43198 16.446 8.38098 16.421C8.03299 16.269 0 12.766 0 6.272C0 3.358 2.38898 1 5.32098 1Z" fill="#111118"/>
</svg>
