<svg width="11" height="10" viewBox="0 0 11 10" fill="none" xmlns="http://www.w3.org/2000/svg">
<path d="M1.24023 7.38899V5.364C1.25789 4.18564 1.74098 3.06211 2.58408 2.23869C3.42717 1.41527 4.56179 0.958839 5.74023 0.969008V0.969008C6.91868 0.958839 8.0533 1.41527 8.89639 2.23869C9.73949 3.06211 10.2226 4.18564 10.2402 5.364V7.38899" stroke="white" stroke-miterlimit="10"/>
<path d="M3.99223 6.69997C3.99223 5.94003 3.37618 5.32397 2.61623 5.32397C1.85629 5.32397 1.24023 5.94003 1.24023 6.69997V7.65597C1.24023 8.41592 1.85629 9.03197 2.61623 9.03197C3.37618 9.03197 3.99223 8.41592 3.99223 7.65597V6.69997Z" stroke="white" stroke-miterlimit="10"/>
<path d="M10.2413 6.69997C10.2413 5.94003 9.6252 5.32397 8.86526 5.32397C8.10531 5.32397 7.48926 5.94003 7.48926 6.69997V7.65597C7.48926 8.41592 8.10531 9.03197 8.86526 9.03197C9.6252 9.03197 10.2413 8.41592 10.2413 7.65597V6.69997Z" stroke="white" stroke-miterlimit="10"/>
</svg>
