<svg width="58" height="58" viewBox="0 0 58 58" fill="none" xmlns="http://www.w3.org/2000/svg">
<path fill-rule="evenodd" clip-rule="evenodd" d="M29.0002 5.4375C27.9992 5.4375 27.1877 6.24899 27.1877 7.25V16.9167C27.1877 16.917 27.1877 16.9164 27.1877 16.9167V34.4605C25.3964 32.9389 23.0763 32.0208 20.5418 32.0208C14.8694 32.0208 10.271 36.6193 10.271 42.2917C10.271 47.9641 14.8694 52.5625 20.5418 52.5625C26.2142 52.5625 30.8127 47.9641 30.8127 42.2917C30.8127 42.0046 30.8008 41.7201 30.7779 41.4391C30.8006 41.324 30.8127 41.2051 30.8127 41.0833V18.7292H43.5002C47.1706 18.7292 50.146 15.7537 50.146 12.0833C50.146 8.41295 47.1706 5.4375 43.5002 5.4375H29.0002ZM30.8127 15.1042H43.5002C45.1686 15.1042 46.521 13.7517 46.521 12.0833C46.521 10.415 45.1686 9.0625 43.5002 9.0625H30.8127V15.1042ZM20.5418 35.6458C16.8714 35.6458 13.896 38.6212 13.896 42.2917C13.896 45.9621 16.8714 48.9375 20.5418 48.9375C24.2123 48.9375 27.1877 45.9621 27.1877 42.2917C27.1877 38.6212 24.2123 35.6458 20.5418 35.6458Z" fill="#94A3B8"/>
</svg>
