<svg width="24" height="18" viewBox="0 0 24 18" fill="none" xmlns="http://www.w3.org/2000/svg">
<path d="M24 1.56L23.935 1.598L21.5 3.223C14.9387 7.65033 11.653 9.86067 11.643 9.854L1.71501 3.086L8.33409e-06 1.925V1.505C-0.00064968 1.3076 0.0376634 1.11201 0.112751 0.929439C0.187838 0.746873 0.298223 0.580924 0.437576 0.441106C0.57693 0.301288 0.742511 0.190352 0.924826 0.114657C1.10714 0.0389626 1.3026 -1.09667e-06 1.50001 0L22.5 0C22.8978 0 23.2794 0.158035 23.5607 0.43934C23.842 0.720644 24 1.10218 24 1.5V1.56ZM24 3.36V16.5C24 16.8978 23.842 17.2794 23.5607 17.5607C23.2794 17.842 22.8978 18 22.5 18H1.50001C1.10218 18 0.720653 17.842 0.439348 17.5607C0.158044 17.2794 8.33409e-06 16.8978 8.33409e-06 16.5V3.73L0.871008 4.32L10.8 11.091C11.0559 11.2649 11.3581 11.358 11.6675 11.358C11.9769 11.358 12.2791 11.2649 12.535 11.091L22.342 4.457L24 3.351V3.36Z" fill="#FEAD2A"/>
</svg>
