<svg width="28" height="28" viewBox="0 0 28 28" fill="none" xmlns="http://www.w3.org/2000/svg">
<path fill-rule="evenodd" clip-rule="evenodd" d="M14.2916 4.08334C8.66242 4.08334 4.08325 8.6625 4.08325 14.2917C4.08325 19.9208 8.66242 24.5 14.2916 24.5C19.9208 24.5 24.4999 19.9208 24.4999 14.2917C24.4999 8.6625 19.9208 4.08334 14.2916 4.08334ZM14.2916 26.25C7.69759 26.25 2.33325 20.8857 2.33325 14.2917C2.33325 7.69767 7.69759 2.33334 14.2916 2.33334C20.8856 2.33334 26.2499 7.69767 26.2499 14.2917C26.2499 20.8857 20.8856 26.25 14.2916 26.25Z" fill="#212121"/>
<path fill-rule="evenodd" clip-rule="evenodd" d="M12.9893 11.7675C12.7828 12.9353 12.7793 15.7248 12.9858 16.8331C14.0102 16.4715 16.2292 15.0131 16.8265 14.291C16.2315 13.5898 14.0405 12.1618 12.9893 11.7675ZM12.6323 18.6683C12.3173 18.6683 12.0187 18.5785 11.7748 18.3358C11.587 18.1503 11.0853 17.6545 11.083 14.389C11.0818 10.9216 11.6033 10.406 11.7748 10.2345C12.385 9.63014 13.379 10.0443 13.8025 10.2216C14.4092 10.4748 18.6663 12.6553 18.6663 14.2863C18.6663 15.8146 14.835 17.952 13.8562 18.3603C13.4747 18.519 13.0395 18.6683 12.6323 18.6683Z" fill="#212121"/>
</svg>
