<svg width="25" height="25" viewBox="0 0 25 25" fill="none" xmlns="http://www.w3.org/2000/svg">
<path d="M12.5 25C10.8578 25.0046 9.23104 24.6833 7.71382 24.0549C6.1966 23.4265 4.81912 22.5034 3.66106 21.339C2.49669 20.181 1.57356 18.8035 0.945146 17.2863C0.316734 15.769 -0.00449035 14.1423 4.74134e-05 12.5C-0.00449035 10.8578 0.316734 9.23105 0.945146 7.71383C1.57356 6.19661 2.49669 4.81911 3.66106 3.66105C4.81912 2.49668 6.1966 1.57357 7.71382 0.945154C9.23104 0.316741 10.8578 -0.00449035 12.5 4.74123e-05C14.1423 -0.00449035 15.7691 0.316741 17.2863 0.945154C18.8035 1.57357 20.181 2.49668 21.339 3.66105C22.5034 4.81911 23.4265 6.19661 24.0549 7.71383C24.6834 9.23105 25.0046 10.8578 25 12.5C25.0046 14.1423 24.6834 15.769 24.0549 17.2863C23.4265 18.8035 22.5034 20.181 21.339 21.339C20.181 22.5034 18.8035 23.4265 17.2863 24.0549C15.7691 24.6833 14.1423 25.0046 12.5 25ZM10.5 7.68905C10.2348 7.68905 9.98049 7.79441 9.79296 7.98194C9.60542 8.16948 9.50005 8.42383 9.50005 8.68905V16.307C9.50005 16.5723 9.60542 16.8266 9.79296 17.0142C9.98049 17.2017 10.2348 17.307 10.5 17.307C10.6691 17.3073 10.8354 17.2643 10.983 17.182L17.908 13.373C18.0658 13.2879 18.1974 13.1613 18.2887 13.007C18.3799 12.8526 18.4274 12.6763 18.426 12.497C18.4274 12.3178 18.3799 12.1415 18.2887 11.9871C18.1974 11.8328 18.0658 11.7062 17.908 11.621L10.983 7.81204C10.8351 7.73075 10.6688 7.68875 10.5 7.69005V7.68905Z" fill="white"/>
</svg>
