<svg width="16" height="16" viewBox="0 0 16 16" fill="none" xmlns="http://www.w3.org/2000/svg">
<path d="M14.8536 11.1464C14.9473 11.2402 15 11.3674 15 11.5C15 11.6326 14.9473 11.7598 14.8536 11.8536L13.3536 13.3536C13.2836 13.4235 13.1945 13.4711 13.0976 13.4904C13.0006 13.5097 12.9 13.4998 12.8087 13.4619C12.7173 13.4241 12.6392 13.36 12.5843 13.2778C12.5293 13.1956 12.5 13.0989 12.5 13V11.9991C11.7938 11.9893 11.0998 11.8137 10.474 11.4866C9.84807 11.1594 9.3078 10.6898 8.89667 10.1155L6.28961 6.46564C5.96539 6.01271 5.53795 5.64353 5.04268 5.38866C4.5474 5.13379 3.99854 5.00056 3.44153 5H2C1.86739 5 1.74021 4.94732 1.64645 4.85355C1.55268 4.75979 1.5 4.63261 1.5 4.5C1.5 4.36739 1.55268 4.24022 1.64645 4.14645C1.74021 4.05268 1.86739 4 2 4H3.44153C4.15768 4.00073 4.86337 4.17203 5.50015 4.49974C6.13693 4.82744 6.68649 5.30212 7.10333 5.88446L9.71039 9.53436C10.0289 9.97907 10.4471 10.3431 10.9315 10.5972C11.4159 10.8514 11.9531 10.9888 12.5 10.9982V10C12.5 9.90111 12.5293 9.80445 12.5843 9.72223C12.6392 9.64001 12.7173 9.57592 12.8087 9.53808C12.9 9.50023 13.0006 9.49033 13.0976 9.50961C13.1946 9.5289 13.2836 9.57651 13.3536 9.64642L14.8536 11.1464ZM8.93835 6.68634C8.99177 6.72453 9.0522 6.75182 9.11617 6.76664C9.18014 6.78147 9.2464 6.78354 9.31117 6.77274C9.37595 6.76194 9.43796 6.73848 9.49366 6.70371C9.54936 6.66893 9.59766 6.62352 9.6358 6.57007L9.71039 6.46564C10.0289 6.02094 10.4471 5.65694 10.9315 5.40275C11.4159 5.14857 11.9531 5.01125 12.5 5.00177V6C12.5 6.09889 12.5293 6.19556 12.5843 6.27778C12.6392 6.36001 12.7173 6.42409 12.8087 6.46194C12.9 6.49978 13.0006 6.50969 13.0976 6.4904C13.1945 6.47111 13.2836 6.4235 13.3536 6.35358L14.8536 4.85358C14.9473 4.7598 15 4.63261 15 4.5C15 4.36739 14.9473 4.2402 14.8536 4.14642L13.3536 2.64642C13.2836 2.57651 13.1946 2.5289 13.0976 2.50961C13.0006 2.49033 12.9 2.50023 12.8087 2.53808C12.7173 2.57592 12.6392 2.64001 12.5843 2.72223C12.5293 2.80445 12.5 2.90111 12.5 3V4.00089C11.7938 4.0107 11.0998 4.18626 10.474 4.51343C9.84807 4.8406 9.3078 5.31023 8.89667 5.88446L8.82208 5.98889C8.78391 6.04232 8.75664 6.10274 8.74183 6.16671C8.72702 6.23068 8.72495 6.29694 8.73575 6.3617C8.74654 6.42647 8.76999 6.48847 8.80476 6.54418C8.83952 6.59988 8.88492 6.64819 8.93835 6.68634ZM7.06165 9.31366C7.00823 9.27547 6.9478 9.24819 6.88383 9.23337C6.81986 9.21854 6.7536 9.21647 6.68883 9.22727C6.62406 9.23807 6.56205 9.26152 6.50634 9.2963C6.45064 9.33107 6.40234 9.37648 6.3642 9.42993L6.28961 9.53436C5.96539 9.98729 5.53795 10.3565 5.04268 10.6113C4.5474 10.8662 3.99854 10.9994 3.44153 11H2C1.86739 11 1.74021 11.0527 1.64645 11.1464C1.55268 11.2402 1.5 11.3674 1.5 11.5C1.5 11.6326 1.55268 11.7598 1.64645 11.8536C1.74021 11.9473 1.86739 12 2 12H3.44153C4.15768 11.9993 4.86337 11.828 5.50015 11.5003C6.13693 11.1726 6.68649 10.6979 7.10333 10.1155L7.17792 10.0111C7.21609 9.95768 7.24336 9.89726 7.25817 9.83329C7.27298 9.76933 7.27505 9.70307 7.26425 9.6383C7.25346 9.57353 7.23001 9.51153 7.19524 9.45583C7.16048 9.40012 7.11508 9.35182 7.06165 9.31366Z" fill="#454545"/>
</svg>
