<svg width="9" height="8" viewBox="0 0 9 8" fill="none" xmlns="http://www.w3.org/2000/svg">
<path d="M8.478 2.235C8.45276 1.65087 8.2094 1.09745 7.79597 0.684021C7.38255 0.270596 6.82914 0.0272336 6.24501 0.00199887C5.93247 -0.0105557 5.62062 0.0404948 5.3284 0.152055C5.03618 0.263615 4.76966 0.43336 4.545 0.650999C4.11268 1.06359 3.85742 1.6279 3.83301 2.225L6.22501 4.668L6.244 4.654C6.84686 4.63344 7.41765 4.37747 7.834 3.941C8.05159 3.71528 8.22091 3.44761 8.33163 3.1543C8.44236 2.86099 8.49215 2.54819 8.478 2.235Z" fill="#919191"/>
<path d="M1.10401 5.674C1.00674 5.79567 0.95776 5.94894 0.966431 6.10448C0.975103 6.26001 1.04082 6.40689 1.15101 6.517L1.36201 6.728L0.562009 7.54099C0.517007 7.59265 0.493331 7.65949 0.495778 7.72797C0.498225 7.79644 0.526613 7.86142 0.575188 7.90974C0.623764 7.95807 0.688894 7.98612 0.757378 7.9882C0.825863 7.99029 0.89258 7.96626 0.944009 7.92099L1.74401 7.10899L1.95401 7.31898C2.06412 7.42917 2.21099 7.4949 2.36653 7.50357C2.52206 7.51224 2.67533 7.46326 2.79701 7.366L5.92701 4.866L3.62701 2.51599L1.10401 5.674ZM4.17601 4.295C4.22639 4.3456 4.25467 4.41409 4.25467 4.48549C4.25467 4.55689 4.22639 4.62539 4.17601 4.67599L3.28601 5.56599C3.26166 5.5938 3.23186 5.61632 3.19845 5.63214C3.16505 5.64796 3.12876 5.65677 3.09181 5.65799C3.05487 5.65921 3.01807 5.65283 2.98369 5.63925C2.94931 5.62567 2.91809 5.60519 2.89195 5.57906C2.86581 5.55292 2.84532 5.52168 2.83175 5.4873C2.81817 5.45293 2.81179 5.41614 2.81302 5.3792C2.81424 5.34225 2.82304 5.30596 2.83886 5.27255C2.85469 5.23915 2.8772 5.20935 2.90501 5.185L3.79501 4.295C3.84521 4.24422 3.91348 4.21539 3.98489 4.21483C4.05629 4.21427 4.12501 4.24201 4.17601 4.29199V4.295Z" fill="#919191"/>
</svg>
