<svg width="10" height="12" viewBox="0 0 10 12" fill="none" xmlns="http://www.w3.org/2000/svg">
<path opacity="0.5" d="M9.08241 3.82598C8.93547 3.65889 8.76199 3.51107 8.56722 3.38699C8.41463 3.29855 8.25462 3.22031 8.08856 3.15298L7.56422 2.93698C7.33229 2.83313 7.11429 2.70704 6.91421 2.561C6.65629 2.39819 6.42558 2.20464 6.22879 1.98599C6.06315 1.78599 5.92265 1.618 5.80956 1.466C5.716 1.3337 5.60308 1.21266 5.4737 1.10598C5.41512 1.06204 5.34597 1.03022 5.27141 1.0129C5.19684 0.99559 5.11878 0.993221 5.04303 1.00598C4.94528 1.01221 4.84995 1.03553 4.76265 1.07452C4.67534 1.1135 4.59783 1.16738 4.53469 1.233C4.4008 1.38061 4.33008 1.56455 4.33477 1.75299C4.29707 2.83899 4.16684 7.794 4.16684 7.794C3.9779 7.73019 3.78397 7.67836 3.58652 7.63897C3.29276 7.58103 2.99192 7.55517 2.6909 7.56198C2.33485 7.56944 1.98211 7.62372 1.6445 7.72299C1.25942 7.83808 0.910731 8.03094 0.626662 8.28597C0.335519 8.51274 0.157867 8.8306 0.132021 9.17098C0.118508 9.48748 0.223179 9.79922 0.430179 10.059C0.662911 10.3484 0.973688 10.583 1.33492 10.742C1.74464 10.9295 2.20397 11.0182 2.66578 10.999C3.0855 10.9989 3.50115 10.9269 3.88925 10.787C4.18895 10.6772 4.46076 10.5165 4.6889 10.314C4.87905 10.1449 5.02179 9.93953 5.10587 9.71398C5.1792 9.5245 5.21775 9.32602 5.22009 9.12597L5.23609 8.49999L5.37089 3.65899L5.38346 3.18499C5.37914 3.13626 5.39164 3.0875 5.41935 3.04507C5.44705 3.00263 5.48867 2.96847 5.53882 2.94699C5.64163 2.90399 5.78214 2.96299 5.96149 3.11999C6.18161 3.32672 6.41748 3.52017 6.66746 3.699C6.95295 3.90783 7.29202 4.05295 7.65561 4.12197C7.94593 4.15936 8.21918 4.26514 8.44613 4.42797C8.6311 4.60202 8.73853 4.82842 8.74885 5.06597C8.75403 5.1923 8.78699 5.31657 8.84594 5.43197C8.86023 5.45967 8.88155 5.48416 8.90827 5.50356C8.935 5.52297 8.96643 5.53682 9.00017 5.544C9.05843 5.552 9.1304 5.50298 9.21722 5.39898C9.31242 5.2758 9.37809 5.13702 9.41027 4.99099C9.45253 4.80606 9.45563 4.6159 9.4194 4.42999C9.37427 4.20648 9.25829 3.99857 9.08469 3.82998L9.08241 3.82598Z" fill="white"/>
</svg>
