<svg width="17" height="17" viewBox="0 0 17 17" fill="none" xmlns="http://www.w3.org/2000/svg">
<path d="M10.493 14.2446L15.9688 8.67404L10.493 3.1044V5.194C10.493 5.8204 10.0008 6.34433 9.37011 6.3869C6.79009 6.55511 4.81806 7.35913 3.3413 8.84494C1.43267 10.7652 1.07978 13.2284 1.0147 14.1075C2.80013 11.3549 6.76311 10.9345 9.01392 10.9345C9.12087 10.9345 9.22338 10.9355 9.3212 10.9372C9.97831 10.9491 10.493 11.4766 10.493 12.138V14.2446ZM0.912664 15.3553C0.764395 15.3553 0.614172 15.3192 0.475042 15.243C0.179037 15.081 -0.00295442 14.77 3.63022e-05 14.433C3.63022e-05 14.285 0.0110378 10.777 2.63204 8.13998C4.26304 6.49899 6.43703 5.57599 9.30504 5.38901C9.40903 5.38199 9.49303 5.298 9.49303 5.194V2.918C9.49799 2.40872 9.91103 1.99994 10.418 1.99994C10.4217 1.99994 10.4253 1.99997 10.429 2C10.672 2.00198 10.903 2.099 11.075 2.26999L16.735 8.02701C17.087 8.38501 17.089 8.961 16.737 9.32001H16.736L11.078 15.076C10.8967 15.2589 10.6582 15.3504 10.4199 15.3504C10.1837 15.3504 9.94768 15.2606 9.76703 15.081C9.59304 14.909 9.49503 14.675 9.49303 14.43V12.138C9.49303 12.029 9.41204 11.939 9.30305 11.937C9.21165 11.9354 9.11487 11.9345 9.01392 11.9345C6.99427 11.9345 3.16839 12.2952 1.71503 14.881C1.54853 15.1839 1.23542 15.3553 0.912664 15.3553Z" fill="#111118"/>
</svg>
