<svg width="13" height="14" viewBox="0 0 13 14" fill="none" xmlns="http://www.w3.org/2000/svg">
<path d="M12.034 2.73801L7.466 0.220001C7.1646 0.0750614 6.83444 -0.000183105 6.5 -0.000183105C6.16556 -0.000183105 5.8354 0.0750614 5.534 0.220001L0.966003 2.73801C0.687994 2.90885 0.455133 3.14401 0.287018 3.42368C0.118903 3.70335 0.0204556 4.01933 0 4.345V9.362C0.0201267 9.68775 0.118414 10.0039 0.28656 10.2836C0.454706 10.5633 0.687768 10.7984 0.966003 10.969L5.534 13.487C5.8354 13.6319 6.16556 13.7072 6.5 13.7072C6.83444 13.7072 7.1646 13.6319 7.466 13.487L12.034 10.969C12.3121 10.7981 12.5451 10.5628 12.7132 10.2829C12.8813 10.003 12.9797 9.68683 13 9.36099V4.34601C12.9799 4.02026 12.8816 3.70416 12.7134 3.42444C12.5453 3.14472 12.3122 2.90961 12.034 2.73901V2.73801Z" fill="#A6CFD5" fill-opacity="0.23"/>
<path d="M10.0709 6.23998L8.9309 7.33999C8.80698 7.47292 8.71349 7.63121 8.65685 7.80389C8.60021 7.97656 8.58178 8.15949 8.6029 8.33999L8.8709 9.88799C8.9269 10.209 8.73393 10.348 8.43993 10.196L7.03191 9.46499C6.86459 9.38995 6.68331 9.35116 6.49993 9.35116C6.31655 9.35116 6.13527 9.38995 5.96795 9.46499L4.55792 10.196C4.26592 10.347 4.07092 10.21 4.12792 9.88799L4.39593 8.33999C4.41678 8.15942 4.39817 7.97649 4.34136 7.80383C4.28456 7.63117 4.19093 7.4729 4.06695 7.33999L2.92693 6.23998C2.68993 6.01198 2.76394 5.78798 3.09094 5.73998L4.66692 5.514C4.84609 5.47838 5.01557 5.40489 5.16406 5.29849C5.31254 5.19208 5.43663 5.05521 5.52795 4.897L6.2279 3.48998C6.3739 3.19698 6.61392 3.19698 6.76092 3.48998L7.46093 4.897C7.55205 5.05537 7.67606 5.19239 7.82458 5.29882C7.9731 5.40525 8.14269 5.47862 8.32195 5.514L9.89593 5.73998C10.2229 5.78698 10.2959 6.01098 10.0599 6.23998H10.0709Z" fill="black"/>
</svg>
