<svg width="22" height="22" viewBox="0 0 22 22" fill="none" xmlns="http://www.w3.org/2000/svg">
<path d="M3.68225 16.3542C3.82497 16.4975 3.93433 16.6705 4.00254 16.8609C4.07076 17.0512 4.09614 17.2543 4.07687 17.4556C3.98024 18.3873 3.79703 19.3079 3.52962 20.2056C5.44775 19.7615 6.61925 19.2472 7.15138 18.9778C7.45319 18.8249 7.80077 18.7887 8.12762 18.876C9.0646 19.1258 10.0303 19.2515 11 19.25C16.4945 19.25 20.625 15.3904 20.625 11C20.625 6.611 16.4945 2.75 11 2.75C5.5055 2.75 1.375 6.611 1.375 11C1.375 13.0185 2.22338 14.8912 3.68225 16.3542ZM3.00437 21.7236C2.67859 21.7882 2.35176 21.8473 2.024 21.901C1.749 21.945 1.54 21.659 1.64863 21.4032C1.77071 21.1153 1.88262 20.8232 1.98412 20.5274L1.98825 20.5136C2.32925 19.5236 2.607 18.3851 2.70875 17.325C1.02163 15.6338 0 13.42 0 11C0 5.68425 4.92525 1.375 11 1.375C17.0748 1.375 22 5.68425 22 11C22 16.3158 17.0748 20.625 11 20.625C9.91052 20.6265 8.82556 20.485 7.77287 20.2043C7.05787 20.5659 5.51925 21.2245 3.00437 21.7236Z" fill="#94A3B8"/>
</svg>
