<svg width="26" height="26" viewBox="0 0 26 26" fill="none" xmlns="http://www.w3.org/2000/svg">
<path fill-rule="evenodd" clip-rule="evenodd" d="M2.42848 10.6356C3.53465 5.68293 7.92674 2.16296 12.9956 2.1667C13.7885 2.16569 14.5789 2.25503 15.3516 2.433C18.1664 3.05261 20.6172 4.77287 22.1587 7.21105C23.7002 9.64922 24.2043 12.6031 23.5591 15.4154C23.503 15.7273 23.2774 15.9817 22.9746 16.0745C22.672 16.1674 22.3428 16.0831 22.1217 15.8561C21.9007 15.6292 21.8249 15.2976 21.9252 14.9969C22.939 10.4638 20.3842 5.89296 15.9951 4.38688C11.6059 2.8808 6.78784 4.92177 4.81116 9.12444C2.8345 13.3271 4.33221 18.3457 8.28769 20.7738C12.2431 23.202 17.3898 22.262 20.2344 18.5921C20.5399 18.3088 21.0059 18.2906 21.3327 18.549C21.6595 18.8073 21.7497 19.2655 21.5453 19.6287C18.4434 23.6426 12.9741 24.9624 8.38634 22.8042C3.79861 20.646 1.32231 15.5883 2.42848 10.6356ZM13.1432 15.6191C12.9567 15.2261 13.0983 14.7555 13.4707 14.5309L14.1071 14.217L15.1711 10.8121L11.8462 11.8583L10.3263 16.7185C10.1896 17.1594 9.722 17.4063 9.28133 17.2701C9.0676 17.2044 8.88903 17.0558 8.7855 16.8574C8.68197 16.6591 8.66211 16.4275 8.73036 16.2143L10.3833 10.9263C10.4689 10.6672 10.6741 10.4654 10.9343 10.3841L16.2161 8.72923C16.3757 8.67187 16.5503 8.67187 16.7099 8.72923C16.923 8.79274 17.1016 8.93948 17.2051 9.13634C17.3088 9.33319 17.329 9.56356 17.2609 9.77543L15.5701 15.073C15.5027 15.2927 15.3481 15.4749 15.1426 15.5771L14.1926 16.0526C13.7835 16.1996 13.3297 16.0122 13.1432 15.6191Z" fill="#94A3B8"/>
</svg>
