<svg width="32" height="32" viewBox="0 0 32 32" fill="none" xmlns="http://www.w3.org/2000/svg">
<path d="M16 1C18.9667 1 21.8668 1.87973 24.3336 3.52795C26.8003 5.17618 28.7229 7.51884 29.8582 10.2597C30.9935 13.0006 31.2906 16.0166 30.7118 18.9264C30.133 21.8361 28.7044 24.5088 26.6066 26.6066C24.5088 28.7044 21.8361 30.133 18.9264 30.7118C16.0166 31.2905 13.0006 30.9935 10.2598 29.8582C7.51886 28.7229 5.17619 26.8003 3.52797 24.3336C1.87975 21.8668 1 18.9667 1 16C1 12.0218 2.58036 8.20645 5.3934 5.3934C8.20645 2.58036 12.0218 1 16 1V1Z" stroke="#111118"/>
<path d="M14.1622 20.062C14.6959 19.5278 15.1182 18.8929 15.4045 18.1942C15.6908 17.4954 15.8354 16.7468 15.8299 15.9916C15.8244 15.2365 15.669 14.49 15.3725 13.7955C15.0761 13.101 14.6446 12.4723 14.1032 11.946" stroke="#111118" stroke-width="2" stroke-miterlimit="10" stroke-linecap="round"/>
<path d="M18.326 22.476C20.0326 20.7486 20.9842 18.4148 20.9721 15.9865C20.9599 13.5583 19.9849 11.2341 18.261 9.52399" stroke="#111118" stroke-width="2" stroke-miterlimit="10" stroke-linecap="round"/>
<path d="M9.0279 15.966C9.02772 15.8332 9.07855 15.7054 9.16989 15.609L10.6259 14.042C10.7188 13.9419 10.847 13.8818 10.9833 13.8743C11.1197 13.8669 11.2536 13.9126 11.3569 14.002C11.6478 14.2493 11.8802 14.5581 12.0373 14.906C12.1945 15.254 12.2725 15.6325 12.2657 16.0143C12.2589 16.396 12.1675 16.7715 11.9981 17.1137C11.8286 17.4559 11.5854 17.7562 11.2859 17.993C11.1794 18.0777 11.0444 18.1181 10.9089 18.106C10.7734 18.0939 10.6477 18.0302 10.5579 17.928L9.1579 16.313C9.07276 16.217 9.02548 16.0933 9.0249 15.965L9.0279 15.966Z" fill="#111118"/>
</svg>
