<svg width="27" height="26" viewBox="0 0 27 26" fill="none" xmlns="http://www.w3.org/2000/svg">
<path d="M13.5 26C20.9558 26 27 20.1797 27 13C27 5.8203 20.9558 0 13.5 0C6.04416 0 0 5.8203 0 13C0 20.1797 6.04416 26 13.5 26Z" fill="#C5C5D1"/>
<path d="M8.5 15C9.32843 15 10 14.3284 10 13.5C10 12.6716 9.32843 12 8.5 12C7.67157 12 7 12.6716 7 13.5C7 14.3284 7.67157 15 8.5 15Z" fill="#FBFBFB" fill-opacity="0.22"/>
<path d="M13.5 15C14.3284 15 15 14.3284 15 13.5C15 12.6716 14.3284 12 13.5 12C12.6716 12 12 12.6716 12 13.5C12 14.3284 12.6716 15 13.5 15Z" fill="#FBFBFB" fill-opacity="0.22"/>
<path d="M18.5 15C19.3284 15 20 14.3284 20 13.5C20 12.6716 19.3284 12 18.5 12C17.6716 12 17 12.6716 17 13.5C17 14.3284 17.6716 15 18.5 15Z" fill="#FBFBFB" fill-opacity="0.22"/>
</svg>
