<svg width="147" height="133" viewBox="0 0 147 133" fill="none" xmlns="http://www.w3.org/2000/svg">
<path d="M23.9945 95V99.88H15.4345V123H10.5545V99.88H1.99453V95H23.9945ZM24.768 115.6V103H29.648V114.32C29.648 115.107 29.8413 115.827 30.228 116.48C30.6146 117.12 31.128 117.633 31.768 118.02C32.4213 118.393 33.1346 118.58 33.908 118.58C34.708 118.58 35.428 118.393 36.068 118.02C36.708 117.633 37.2213 117.12 37.608 116.48C37.9946 115.827 38.188 115.107 38.188 114.32V103H43.068L43.088 123H38.208L38.188 121.18C37.4946 121.9 36.6746 122.473 35.728 122.9C34.7813 123.313 33.768 123.52 32.688 123.52C31.2346 123.52 29.908 123.167 28.708 122.46C27.508 121.74 26.548 120.787 25.828 119.6C25.1213 118.4 24.768 117.067 24.768 115.6ZM65.4114 110.36V123H60.5314V111.64C60.5314 110.853 60.3381 110.14 59.9514 109.5C59.5647 108.847 59.0447 108.333 58.3914 107.96C57.7514 107.573 57.0381 107.38 56.2514 107.38C55.4647 107.38 54.7447 107.573 54.0914 107.96C53.4514 108.333 52.9381 108.847 52.5514 109.5C52.1781 110.14 51.9914 110.853 51.9914 111.64V123H47.1114L47.0914 103H51.9714L51.9914 104.78C52.6714 104.06 53.4847 103.493 54.4314 103.08C55.3781 102.653 56.3981 102.44 57.4914 102.44C58.9447 102.44 60.2714 102.8 61.4714 103.52C62.6714 104.227 63.6247 105.18 64.3314 106.38C65.0514 107.567 65.4114 108.893 65.4114 110.36ZM77.8055 123.52C75.9655 123.52 74.2855 123.047 72.7655 122.1C71.2588 121.153 70.0521 119.88 69.1455 118.28C68.2521 116.68 67.8055 114.913 67.8055 112.98C67.8055 111.527 68.0655 110.167 68.5855 108.9C69.1055 107.62 69.8188 106.5 70.7255 105.54C71.6455 104.567 72.7121 103.807 73.9255 103.26C75.1388 102.713 76.4321 102.44 77.8055 102.44C79.3655 102.44 80.7921 102.773 82.0855 103.44C83.3921 104.093 84.4988 104.993 85.4055 106.14C86.3121 107.287 86.9721 108.593 87.3855 110.06C87.7988 111.527 87.8921 113.06 87.6655 114.66H73.0455C73.2321 115.407 73.5388 116.08 73.9655 116.68C74.3921 117.267 74.9321 117.74 75.5855 118.1C76.2388 118.447 76.9788 118.627 77.8055 118.64C78.6588 118.653 79.4321 118.453 80.1255 118.04C80.8321 117.613 81.4188 117.04 81.8855 116.32L86.8655 117.48C86.0521 119.253 84.8388 120.707 83.2255 121.84C81.6121 122.96 79.8055 123.52 77.8055 123.52ZM72.8855 111H82.7255C82.5788 110.2 82.2655 109.48 81.7855 108.84C81.3188 108.187 80.7388 107.667 80.0455 107.28C79.3521 106.893 78.6055 106.7 77.8055 106.7C77.0055 106.7 76.2655 106.893 75.5855 107.28C74.9055 107.653 74.3255 108.167 73.8455 108.82C73.3788 109.46 73.0588 110.187 72.8855 111ZM106.118 93H110.998V123H106.118V120.5C105.478 121.393 104.671 122.12 103.698 122.68C102.724 123.24 101.598 123.52 100.318 123.52C98.8643 123.52 97.5043 123.247 96.2377 122.7C94.971 122.153 93.851 121.4 92.8777 120.44C91.9177 119.467 91.1643 118.347 90.6177 117.08C90.071 115.813 89.7977 114.453 89.7977 113C89.7977 111.547 90.071 110.187 90.6177 108.92C91.1643 107.653 91.9177 106.54 92.8777 105.58C93.851 104.607 94.971 103.847 96.2377 103.3C97.5043 102.753 98.8643 102.48 100.318 102.48C101.598 102.48 102.724 102.76 103.698 103.32C104.671 103.867 105.478 104.593 106.118 105.5V93ZM100.378 118.82C101.418 118.82 102.338 118.56 103.138 118.04C103.938 117.52 104.564 116.82 105.018 115.94C105.471 115.047 105.698 114.067 105.698 113C105.698 111.92 105.471 110.94 105.018 110.06C104.564 109.167 103.931 108.46 103.118 107.94C102.318 107.42 101.404 107.16 100.378 107.16C99.351 107.16 98.411 107.427 97.5577 107.96C96.7177 108.48 96.0443 109.18 95.5377 110.06C95.0443 110.94 94.7977 111.92 94.7977 113C94.7977 114.08 95.051 115.06 95.5577 115.94C96.0643 116.82 96.7377 117.52 97.5777 118.04C98.431 118.56 99.3643 118.82 100.378 118.82ZM116.402 123V95H121.282V123H116.402ZM145.021 110.36V123H140.141V111.64C140.141 110.853 139.947 110.14 139.561 109.5C139.174 108.847 138.654 108.333 138.001 107.96C137.361 107.573 136.647 107.38 135.861 107.38C135.074 107.38 134.354 107.573 133.701 107.96C133.061 108.333 132.547 108.847 132.161 109.5C131.787 110.14 131.601 110.853 131.601 111.64V123H126.721L126.701 103H131.581L131.601 104.78C132.281 104.06 133.094 103.493 134.041 103.08C134.987 102.653 136.007 102.44 137.101 102.44C138.554 102.44 139.881 102.8 141.081 103.52C142.281 104.227 143.234 105.18 143.941 106.38C144.661 107.567 145.021 108.893 145.021 110.36Z" fill="#A6CFD5"/>
<g clip-path="url(#clip0_68_1701)">
<g filter="url(#filter0_dd_68_1701)">
<path d="M38.3367 22.6073C40.786 10.7988 48.3223 4.22188 60.0776 2.23505C68.7675 0.766628 77.4606 0.748032 86.1359 2.27628C98.2396 4.40832 105.516 11.3688 107.834 23.3558C109.625 32.6197 109.653 41.9824 107.806 51.2376C105.328 62.9642 97.5972 70.2028 85.8853 72.1824C77.1954 73.6506 68.5023 73.6692 59.827 72.1411C47.7232 70.0089 40.4146 62.701 38.0968 50.7142C36.2146 41.3891 36.3957 31.9672 38.3367 22.6071V22.6073Z" fill="black"/>
</g>
<path d="M38.3367 22.6073C40.786 10.7988 48.3223 4.22188 60.0776 2.23505C68.7675 0.766628 77.4606 0.748032 86.1359 2.27628C98.2396 4.40832 105.516 11.3688 107.834 23.3558C109.625 32.6197 109.653 41.9824 107.806 51.2376C105.328 62.9642 97.5972 70.2028 85.8853 72.1824C77.1954 73.6506 68.5023 73.6692 59.827 72.1411C47.7232 70.0089 40.4146 62.701 38.0968 50.7142C36.2146 41.3891 36.3957 31.9672 38.3367 22.6071V22.6073Z" fill="#A6CFD5"/>
<path fill-rule="evenodd" clip-rule="evenodd" d="M84.8586 25.0803C80.3678 20.5404 72.1915 16.4936 72.1915 16.4936V47.5412C72.1915 49.0299 71.7327 50.4952 70.8215 51.6727C69.9341 52.8192 68.5116 53.8615 66.2727 53.8615C63.6491 53.8615 62.247 52.3092 62.247 49.846C62.247 47.3826 64.7118 45.691 67.2856 45.1836C67.8322 45.0758 68.634 45.0252 68.634 45.0252V42.2326C68.4725 42.2239 68.3107 42.2194 68.1489 42.219C63.6824 42.219 59.2553 45.7869 59.2553 49.9807C59.2553 54.1744 61.9574 56.7183 66.4242 56.7183C70.8545 56.7183 74.9802 53.5296 74.9802 46.5333C74.9802 39.5375 74.9944 21.0244 74.9944 21.0244C76.8333 22.0544 79.7737 23.8577 82.3574 26.1426C86.4863 29.7938 80.9774 35.9126 80.9774 35.9126L83.1334 37.7992C83.1334 37.7992 89.6553 29.9296 84.8586 25.0803" fill="white"/>
</g>
<defs>
<filter id="filter0_dd_68_1701" x="25.7787" y="-5.8681" width="94.4054" height="94.1535" filterUnits="userSpaceOnUse" color-interpolation-filters="sRGB">
<feFlood flood-opacity="0" result="BackgroundImageFix"/>
<feColorMatrix in="SourceAlpha" type="matrix" values="0 0 0 0 0 0 0 0 0 0 0 0 0 0 0 0 0 0 127 0" result="hardAlpha"/>
<feOffset dy="5"/>
<feGaussianBlur stdDeviation="4"/>
<feColorMatrix type="matrix" values="0 0 0 0 0 0 0 0 0 0 0 0 0 0 0 0 0 0 0.078125 0"/>
<feBlend mode="normal" in2="BackgroundImageFix" result="effect1_dropShadow_68_1701"/>
<feColorMatrix in="SourceAlpha" type="matrix" values="0 0 0 0 0 0 0 0 0 0 0 0 0 0 0 0 0 0 127 0" result="hardAlpha"/>
<feOffset dy="4"/>
<feGaussianBlur stdDeviation="5.5"/>
<feColorMatrix type="matrix" values="0 0 0 0 0 0 0 0 0 0 0 0 0 0 0 0 0 0 0.210824 0"/>
<feBlend mode="normal" in2="effect1_dropShadow_68_1701" result="effect2_dropShadow_68_1701"/>
<feBlend mode="normal" in="SourceGraphic" in2="effect2_dropShadow_68_1701" result="shape"/>
</filter>
<clipPath id="clip0_68_1701">
<rect width="76" height="75.6766" fill="white" transform="translate(35)"/>
</clipPath>
</defs>
</svg>
